<?xml version="1.0" encoding="UTF-8"?>
<svg version="1.1" xmlns="http://www.w3.org/2000/svg" width="577" height="433">
<path d="M0 0 C10.49532534 8.611549 13.34612631 23.27212049 14.78366089 36.08547974 C15.08134901 39.47981206 15.32869714 42.87330777 15.55078125 46.2734375 C15.63507889 47.56188568 15.71937653 48.85033386 15.80622864 50.17782593 C16.80010563 66.4785634 16.69944635 82.79538064 16.63311768 99.11938477 C16.62234779 102.44363536 16.62269197 105.76784468 16.6231308 109.09210968 C16.62251245 127.38035979 16.37634838 145.64472131 15.81092834 163.92416382 C15.50895144 173.76739161 15.32245073 183.60581532 15.2265625 193.453125 C15.212267 194.76739471 15.1979715 196.08166443 15.1832428 197.4357605 C15.09787073 205.34302054 15.09787073 205.34302054 15.03613281 213.25048828 C14.72956105 259.48094679 14.72956105 259.48094679 9.4375 269 C7.79272461 270.52978516 7.79272461 270.52978516 5.83984375 271.7890625 C5.11990234 272.25570313 4.39996094 272.72234375 3.65820312 273.203125 C2.90474609 273.67234375 2.15128906 274.1415625 1.375 274.625 C0.64861328 275.10195313 -0.07777344 275.57890625 -0.82617188 276.0703125 C-8.51681204 280.96621075 -16.14340913 283.36736198 -25.1875 284.1875 C-26.04214844 284.26935547 -26.89679688 284.35121094 -27.77734375 284.43554688 C-39.35620183 285.36780947 -51.0099288 285.10112512 -62.61572266 284.92651367 C-70.99732375 284.82581742 -78.84043219 285.03289127 -87.09375 286.66015625 C-89.5625 287 -89.5625 287 -92.5625 286 C-98.85387911 285.66046525 -105.10688162 286.00452877 -111.375 286.5625 C-122.33992686 287.48171543 -122.33992686 287.48171543 -127.5625 284 C-128.2225 284.66 -128.8825 285.32 -129.5625 286 C-133.05114279 285.63910592 -135.65282693 283.8589578 -138.5625 282 C-139.2225 283.32 -139.8825 284.64 -140.5625 286 C-141.2225 283.36 -141.8825 280.72 -142.5625 278 C-143.2225 280.64 -143.8825 283.28 -144.5625 286 C-144.8925 286 -145.2225 286 -145.5625 286 C-146.2225 281.71 -146.8825 277.42 -147.5625 273 C-147.68625 274.93875 -147.81 276.8775 -147.9375 278.875 C-148.3125 284.75 -148.3125 284.75 -150.5625 287 C-151.8825 284.36 -153.2025 281.72 -154.5625 279 C-155.5525 279.33 -156.5425 279.66 -157.5625 280 C-157.5625 279.34 -157.5625 278.68 -157.5625 278 C-158.985625 277.5359375 -158.985625 277.5359375 -160.4375 277.0625 C-163.5625 276 -163.5625 276 -165.5625 275 C-166.89265975 274.88425603 -168.22770903 274.82153844 -169.5625 274.7890625 C-170.36300781 274.76271729 -171.16351563 274.73637207 -171.98828125 274.70922852 C-172.83777344 274.68143311 -173.68726563 274.6536377 -174.5625 274.625 C-182.86371256 274.27574546 -190.48414559 273.71890294 -197.5625 269 C-197.5625 268.34 -197.5625 267.68 -197.5625 267 C-198.2225 267 -198.8825 267 -199.5625 267 C-199.5625 266.34 -199.5625 265.68 -199.5625 265 C-200.2225 265 -200.8825 265 -201.5625 265 C-203.03515625 262.8828125 -203.03515625 262.8828125 -204.625 260.125 C-205.41583984 258.76761719 -205.41583984 258.76761719 -206.22265625 257.3828125 C-208.32532281 253.64337635 -208.62368839 251.87008253 -208.5 247.5625 C-208.43142153 240.18650472 -208.97217758 232.91254339 -209.5625 225.5625 C-210.74741383 210.36833039 -210.78285239 196.08650148 -208.5625 181 C-207.5725 181 -206.5825 181 -205.5625 181 C-205.624375 180.030625 -205.68625 179.06125 -205.75 178.0625 C-205.74065824 173.47569786 -204.6792575 169.07554801 -202.5625 165 C-201.86125 164.52949219 -201.16 164.05898437 -200.4375 163.57421875 C-199.81875 163.05472656 -199.2 162.53523437 -198.5625 162 C-198.29932481 159.50689618 -198.29932481 159.50689618 -198.8125 156.5625 C-199.77903434 147.56994028 -199.56129939 138.63409319 -199.34863281 129.59985352 C-199.33413086 128.41963623 -199.31962891 127.23941895 -199.3046875 126.0234375 C-199.2826123 124.96044434 -199.26053711 123.89745117 -199.23779297 122.80224609 C-199.61339658 119.56075871 -200.51115047 118.46846765 -202.5625 116 C-204.91461883 111.37822832 -205.38482553 106.4491609 -206.0703125 101.37109375 C-206.20065887 100.42677994 -206.33100525 99.48246613 -206.46530151 98.50953674 C-206.73928008 96.50528162 -207.00971276 94.50053903 -207.27685547 92.49536133 C-207.67937672 89.49798994 -208.10266594 86.50406632 -208.52734375 83.50976562 C-209.83110681 74.02355887 -210.83605214 64.61771802 -210.9296875 55.03515625 C-210.94395782 54.23879257 -210.95822815 53.44242889 -210.97293091 52.62193298 C-210.92652846 46.13876831 -209.30278888 41.04550553 -206.0625 35.375 C-202.82908391 32.30325471 -199.28973763 30.50338653 -195.33984375 28.46875 C-193.04720432 27.25632746 -190.9979022 25.97515699 -188.875 24.5 C-162.30843392 7.58904418 -126.52919963 10.02035652 -96.59887695 11.64379883 C-93.92060677 11.78609062 -91.24253215 11.89630343 -88.5625 12 C-86.99761841 12.08181519 -86.99761841 12.08181519 -85.40112305 12.1652832 C-76.25895744 12.44485813 -68.13019554 10.90112712 -59.31750488 8.75204468 C-55.36929565 7.79026008 -51.40990422 6.87757808 -47.44921875 5.96875 C-46.67671783 5.79095505 -45.90421692 5.6131601 -45.10830688 5.42997742 C-38.09301458 3.84167405 -31.05538726 2.70529925 -23.90405273 1.92456055 C-20.10137024 1.48743714 -16.82018882 0.82288162 -13.24609375 -0.58203125 C-8.20486143 -2.52261166 -4.94322799 -1.92906458 0 0 Z M-136.5625 29 C-138.74564742 35.42766432 -138.74564742 35.42766432 -138.5625 40 C-135.14833753 41.00868917 -131.73079771 42.00542321 -128.3125 43 C-127.34441406 43.28617188 -126.37632812 43.57234375 -125.37890625 43.8671875 C-124.44433594 44.13789062 -123.50976562 44.40859375 -122.546875 44.6875 C-121.68803711 44.93886719 -120.82919922 45.19023438 -119.94433594 45.44921875 C-117.32042136 46.15019807 -117.32042136 46.15019807 -113.5625 46 C-112.7140569 71.36754595 -112.45068768 96.72728443 -112.43911743 122.10704803 C-112.4375136 124.41790707 -112.4339629 126.72875586 -112.42993164 129.03961182 C-112.36341103 172.21096573 -112.36341103 172.21096573 -114.8125 186.6875 C-114.94253418 187.46383789 -115.07256836 188.24017578 -115.20654297 189.04003906 C-118.21072218 205.90886666 -124.21228585 221.11644669 -136.34765625 233.58203125 C-137.77937302 234.94193275 -137.77937302 234.94193275 -137.5625 237 C-138.2225 237 -138.8825 237 -139.5625 237 C-142.34310468 239.70328583 -142.34310468 239.70328583 -144.5625 243 C-144.27101492 246.44229993 -142.58943959 248.58263032 -140.5 251.25 C-139.95214844 251.95640625 -139.40429688 252.6628125 -138.83984375 253.390625 C-138.41832031 253.92171875 -137.99679688 254.4528125 -137.5625 255 C-134.59188962 254.40514854 -132.6190494 253.54634419 -130.19921875 251.734375 C-129.56653076 251.26249756 -128.93384277 250.79062012 -128.28198242 250.30444336 C-127.27615112 249.5349939 -127.27615112 249.5349939 -126.25 248.75 C-125.55302002 248.22220947 -124.85604004 247.69441895 -124.13793945 247.15063477 C-116.67743763 241.43329578 -109.48738156 235.35656768 -102.5625 229 C-102.0053833 228.49025635 -101.4482666 227.9805127 -100.87426758 227.45532227 C-99.33932594 226.07894587 -99.33932594 226.07894587 -99.5625 224 C-98.9025 224 -98.2425 224 -97.5625 224 C-72.26170247 197.35944537 -72.3875968 166.48222632 -72.46484375 131.83984375 C-72.46671296 129.35307341 -72.46813449 126.8663027 -72.46913147 124.37953186 C-72.47291703 117.89092968 -72.48271266 111.40235052 -72.49383545 104.91375732 C-72.50413556 98.26998159 -72.50864737 91.62620351 -72.51367188 84.98242188 C-72.52433918 71.98827153 -72.54116983 58.994137 -72.5625 46 C-71.45607651 45.84680801 -70.34965302 45.69361603 -69.20970154 45.53578186 C-66.39539941 45.12235474 -63.86777352 44.62717571 -61.16015625 43.80859375 C-60.41572266 43.58623047 -59.67128906 43.36386719 -58.90429688 43.13476562 C-58.15212891 42.90466797 -57.39996094 42.67457031 -56.625 42.4375 C-55.84576172 42.20353516 -55.06652344 41.96957031 -54.26367188 41.72851562 C-52.36192813 41.15682579 -50.46201774 40.57904309 -48.5625 40 C-49.5525 36.37 -50.5425 32.74 -51.5625 29 C-79.6125 29 -107.6625 29 -136.5625 29 Z " fill="#B81D33" transform="translate(385.5625,74)"/>
<path d="M0 0 C0 0.99 0 1.98 0 3 C-0.74765625 3.19335938 -1.4953125 3.38671875 -2.265625 3.5859375 C-3.25046875 3.84632812 -4.2353125 4.10671875 -5.25 4.375 C-6.22453125 4.63023438 -7.1990625 4.88546875 -8.203125 5.1484375 C-10.9575095 5.88152396 -10.9575095 5.88152396 -13.109375 7.1640625 C-15.49546301 8.21906836 -16.5573983 7.71680916 -19 7 C-18.99907821 7.57776278 -18.99815641 8.15552557 -18.99720669 8.75079632 C-18.97511468 22.8142107 -18.95857049 36.87762248 -18.94818783 50.94105053 C-18.9430333 57.74203808 -18.93600664 64.54301403 -18.92456055 71.34399414 C-18.91352246 77.90567817 -18.90771763 84.46735331 -18.90512276 91.02904701 C-18.9032732 93.53410342 -18.89966157 96.03915915 -18.89426994 98.54421043 C-18.88702514 102.04926358 -18.88601052 105.55426676 -18.88647461 109.05932617 C-18.88287933 110.09798325 -18.87928406 111.13664032 -18.87557983 112.20677185 C-18.8769545 113.16444458 -18.87832916 114.12211731 -18.87974548 115.10881042 C-18.87882369 115.93750232 -18.8779019 116.76619421 -18.87695217 117.61999798 C-19.00840462 120.16256293 -19.4591533 122.51519064 -20 125 C-20.1337853 126.3268766 -20.24063269 127.65683152 -20.31640625 128.98828125 C-20.35830078 129.69404297 -20.40019531 130.39980469 -20.44335938 131.12695312 C-20.48267578 131.84818359 -20.52199219 132.56941406 -20.5625 133.3125 C-20.60568359 134.05306641 -20.64886719 134.79363281 -20.69335938 135.55664062 C-20.79870432 137.37091464 -20.89978316 139.1854355 -21 141 C-21.66 140.67 -22.32 140.34 -23 140 C-22.89722496 138.08155777 -22.89722496 138.08155777 -22.79237366 136.12435913 C-22.03170071 121.19842634 -21.7899375 106.29475819 -21.68359375 91.3515625 C-21.6629576 88.87193509 -21.64195976 86.39231067 -21.62062073 83.91268921 C-21.56608621 77.46529601 -21.51638182 71.01787481 -21.46777344 64.57043457 C-21.41704901 57.95969221 -21.3616321 51.34898925 -21.30664062 44.73828125 C-21.19990175 31.82555361 -21.09871388 18.91279149 -21 6 C-14.07 4.02 -7.14 2.04 0 0 Z " fill="#A12E3F" transform="translate(334,114)"/>
<path d="M0 0 C0.66 0 1.32 0 2 0 C2.19043745 25.11595248 1.66214524 50.20492187 1.07287598 75.31274414 C0.94963331 80.59710895 0.83048497 85.88156615 0.7109375 91.16601562 C0.47784514 101.4441019 0.24040444 111.72208232 0 122 C-0.33 122 -0.66 122 -1 122 C-1.02338694 107.12676134 -1.04100762 92.25352411 -1.05181217 77.38027096 C-1.05696282 70.47396669 -1.06398204 63.56767387 -1.07543945 56.66137695 C-1.08649199 49.9959402 -1.09228526 43.33051778 -1.09487724 36.66507149 C-1.09672434 34.12259293 -1.10033123 31.58011502 -1.10573006 29.03764153 C-1.11299296 25.47551952 -1.11398871 21.91344658 -1.11352539 18.35131836 C-1.11712067 17.30115036 -1.12071594 16.25098236 -1.12442017 15.16899109 C-1.11715116 10.0014461 -0.89935335 5.09162119 0 0 Z " fill="#AE4151" transform="translate(400,184)"/>
<path d="M0 0 C0.33 0.99 0.66 1.98 1 3 C-1.52956528 6.0916909 -4.22454612 6.90931332 -8 8 C-8 8.66 -8 9.32 -8 10 C-9.65 10 -11.3 10 -13 10 C-14.32 12.31 -15.64 14.62 -17 17 C-18.98 16.67 -20.96 16.34 -23 16 C-23 18.31 -23 20.62 -23 23 C-23.61875 23.12375 -24.2375 23.2475 -24.875 23.375 C-27.19120832 23.87197356 -27.19120832 23.87197356 -29 26 C-28.71865257 21.31087614 -28.01792816 18.00051736 -24.77734375 14.46875 C-21.73433701 11.95408949 -18.28883025 10.2462693 -14.7890625 8.44921875 C-11.65726246 6.82191088 -8.71335816 4.99569643 -5.75390625 3.078125 C-3.88610207 1.92998702 -1.97300412 0.95398002 0 0 Z " fill="#AF2E42" transform="translate(205,94)"/>
<path d="M0 0 C0.99 0.33 1.98 0.66 3 1 C2.67 1.66 2.34 2.32 2 3 C1.72428521 6.08100341 1.55336467 9.16171476 1.37890625 12.25 C1 15 1 15 -1 17 C-2.32 14.36 -3.64 11.72 -5 9 C-5.99 9.33 -6.98 9.66 -8 10 C-8 9.34 -8 8.68 -8 8 C-8.928125 7.731875 -9.85625 7.46375 -10.8125 7.1875 C-13.76240366 6.08851629 -15.05615186 5.37581439 -17 3 C-12.78087253 3.4794463 -10.20336822 4.16625119 -7 7 C-7.33 6.01 -7.66 5.02 -8 4 C-7.34 3.34 -6.68 2.68 -6 2 C-3.375 2.375 -3.375 2.375 -1 3 C-0.67 2.01 -0.34 1.02 0 0 Z " fill="#BB1A36" transform="translate(236,344)"/>
<path d="M0 0 C3.96 0 7.92 0 12 0 C12.495 3.96 12.495 3.96 13 8 C12.01 7.01 12.01 7.01 11 6 C11 4.68 11 3.36 11 2 C10.31734573 2.16265854 9.63469147 2.32531708 8.93135071 2.49290466 C5.59936845 3.06930538 2.48069273 3.11970876 -0.90161133 3.11352539 C-1.91220108 3.11374443 -1.91220108 3.11374443 -2.94320679 3.1139679 C-5.15618174 3.11327472 -7.36907111 3.10551036 -9.58203125 3.09765625 C-11.12188165 3.09578995 -12.66173265 3.09436705 -14.20158386 3.09336853 C-18.24410659 3.08956002 -22.28659309 3.07974402 -26.32910156 3.06866455 C-30.45832835 3.05841455 -34.58756102 3.05386323 -38.71679688 3.04882812 C-46.8112145 3.0381202 -54.90560273 3.02106386 -63 3 C-63 2.67 -63 2.34 -63 2 C-42.21 1.67 -21.42 1.34 0 1 C0 0.67 0 0.34 0 0 Z " fill="#9D2936" transform="translate(323,101)"/>
<path d="M0 0 C0.33 0.66 0.66 1.32 1 2 C-1.97 6.455 -1.97 6.455 -5 11 C-4.67 11.66 -4.34 12.32 -4 13 C-5.32 13 -6.64 13 -8 13 C-9.00217064 16.58327753 -9.00217064 16.58327753 -8 20 C-9.093125 20.185625 -10.18625 20.37125 -11.3125 20.5625 C-12.529375 21.036875 -13.74625 21.51125 -15 22 C-15.474375 23.175625 -15.94875 24.35125 -16.4375 25.5625 C-17.2109375 27.2640625 -17.2109375 27.2640625 -18 29 C-20.78441402 29.96897608 -23.00404585 29.950886 -26 30 C-25.319375 29.34 -24.63875 28.68 -23.9375 28 C-20.93989787 25.02809161 -18.25212981 21.81463908 -15.55078125 18.57421875 C-15.03902344 18.05472656 -14.52726562 17.53523438 -14 17 C-13.34 17 -12.68 17 -12 17 C-11.72929687 16.40960938 -11.45859375 15.81921875 -11.1796875 15.2109375 C-10.0161144 13.03020115 -8.77885829 11.45024257 -7.125 9.625 C-4.43087088 6.56769171 -2.18091609 3.43913691 0 0 Z " fill="#A82A3D" transform="translate(300,281)"/>
<path d="M0 0 C0.33 0 0.66 0 1 0 C1.33 13.86 1.66 27.72 2 42 C-1.28394743 38.71605257 -1.3462423 37.84764616 -1.36553955 33.42640686 C-1.35319275 32.68885666 -1.34084595 31.95130646 -1.328125 31.19140625 C-1.32625183 30.42827621 -1.32437866 29.66514618 -1.32244873 28.87889099 C-1.31573028 27.2658145 -1.30181977 25.65275425 -1.28125 24.03979492 C-1.25016025 21.57520333 -1.24028394 19.11125245 -1.234375 16.64648438 C-1.22520168 15.07811723 -1.21482486 13.50975658 -1.203125 11.94140625 C-1.19887512 11.20588028 -1.19462524 10.47035431 -1.19024658 9.71253967 C-1.14337326 6.34254956 -1.04449044 3.22295422 0 0 Z " fill="#AB3D4E" transform="translate(272,128)"/>
<path d="M0 0 C0.99 0.495 0.99 0.495 2 1 C2 1.66 2 2.32 2 3 C2.78375 2.95875 3.5675 2.9175 4.375 2.875 C7 3 7 3 9 5 C9.56847656 4.66484375 10.13695312 4.3296875 10.72265625 3.984375 C15.3142981 1.99965159 20.48994633 3.47610383 25.0625 5.0625 C25.701875 5.371875 26.34125 5.68125 27 6 C27 6.99 27 7.98 27 9 C25.39504433 8.88557539 23.79101881 8.75805306 22.1875 8.625 C20.84751953 8.52058594 20.84751953 8.52058594 19.48046875 8.4140625 C17 8 17 8 14 6 C13.34 6.66 12.68 7.32 12 8 C8.51135721 7.63910592 5.90967307 5.8589578 3 4 C2.34 5.32 1.68 6.64 1 8 C0.67 5.36 0.34 2.72 0 0 Z " fill="#AE384D" transform="translate(244,352)"/>
<path d="M0 0 C-5.28904743 5.28904743 -14.21177767 5.65192099 -21.3125 6.25 C-22.22733154 6.3329834 -23.14216309 6.4159668 -24.0847168 6.50146484 C-30.85012083 7.05342507 -37.27096506 7.03094945 -44 6 C-44 5.67 -44 5.34 -44 5 C-43.3387915 4.97494385 -42.67758301 4.9498877 -41.99633789 4.92407227 C-39.01817695 4.80846898 -36.0403608 4.68558246 -33.0625 4.5625 C-31.50112305 4.50352539 -31.50112305 4.50352539 -29.90820312 4.44335938 C-28.42416992 4.38051758 -28.42416992 4.38051758 -26.91015625 4.31640625 C-25.99371338 4.27974854 -25.07727051 4.24309082 -24.13305664 4.20532227 C-22.0179272 4.22996136 -22.0179272 4.22996136 -21 3 C-17.9964046 2.71372691 -14.99259893 2.55134245 -11.98046875 2.37890625 C-7.49641404 1.80884949 -4.67450081 -0.25969449 0 0 Z " fill="#AD4454" transform="translate(380,352)"/>
<path d="M0 0 C2 2 2 2 2.22705078 4.79736328 C2.21657715 5.95993652 2.20610352 7.12250977 2.1953125 8.3203125 C2.18886719 9.57714844 2.18242187 10.83398438 2.17578125 12.12890625 C2.15902344 13.44761719 2.14226562 14.76632812 2.125 16.125 C2.11496983 17.46483721 2.10584404 18.80468152 2.09765625 20.14453125 C2.07402075 23.42986573 2.04107234 26.71484465 2 30 C2.66 30 3.32 30 4 30 C4 30.99 4 31.98 4 33 C4.66 33 5.32 33 6 33 C6 34.65 6 36.3 6 38 C2.11705171 34.67175861 0.17585456 30.7262741 -0.34057617 25.65673828 C-0.32486572 24.47321777 -0.30915527 23.28969727 -0.29296875 22.0703125 C-0.28330078 20.78125 -0.27363281 19.4921875 -0.26367188 18.1640625 C-0.23861188 16.81770214 -0.21321712 15.47134797 -0.1875 14.125 C-0.17243504 12.75522295 -0.15874982 11.38542998 -0.14648438 10.015625 C-0.11121379 6.67667642 -0.06191896 3.33854325 0 0 Z " fill="#A12E41" transform="translate(177,298)"/>
<path d="M0 0 C2.62153553 3.93230329 3 7.32335261 3 12 C3.31710938 12.60328125 3.63421875 13.2065625 3.9609375 13.828125 C5.24687458 16.51602356 5.41332693 18.78657703 5.625 21.75 C5.69976562 22.73484375 5.77453125 23.7196875 5.8515625 24.734375 C5.90054688 25.48203125 5.94953125 26.2296875 6 27 C4 26 4 26 2.9453125 23.9375 C1.78462884 20.33074748 1.29684637 16.74820871 0.875 13 C0.78863281 12.30132812 0.70226562 11.60265625 0.61328125 10.8828125 C0.17993319 7.23718594 -0.10038328 3.67116011 0 0 Z " fill="#A83E50" transform="translate(179,164)"/>
<path d="M0 0 C0.66 0 1.32 0 2 0 C2.33 0.99 2.66 1.98 3 3 C1.64942184 5.65428158 0.26001218 8.10898051 -1.3125 10.625 C-1.72951172 11.31851562 -2.14652344 12.01203125 -2.57617188 12.7265625 C-5.71913485 17.85956743 -5.71913485 17.85956743 -8 19 C-7.57053112 16.59497425 -7.16517988 15.19390681 -5.5625 13.3125 C-3.22396546 9.85146889 -2.73829395 6.06495966 -2 2 C-1.34 2 -0.68 2 0 2 C0 1.34 0 0.68 0 0 Z " fill="#B03C4F" transform="translate(262,283)"/>
<path d="M0 0 C1.08667969 0.02707031 2.17335938 0.05414063 3.29296875 0.08203125 C4.54013672 0.13423828 4.54013672 0.13423828 5.8125 0.1875 C6.1425 2.8275 6.4725 5.4675 6.8125 8.1875 C6.1525 7.5275 5.4925 6.8675 4.8125 6.1875 C4.8125 4.8675 4.8125 3.5475 4.8125 2.1875 C4.173125 2.3525 3.53375 2.5175 2.875 2.6875 C-1.16336652 3.34682515 -5.10557258 3.26753779 -9.1875 3.1875 C-6.54246503 -0.34849411 -4.24021315 -0.13678107 0 0 Z " fill="#B03C4E" transform="translate(329.1875,100.8125)"/>
<path d="M0 0 C4.21912747 0.4794463 6.79663178 1.16625119 10 4 C9.67 3.01 9.34 2.02 9 1 C10.32 0.67 11.64 0.34 13 0 C13.33 0.99 13.66 1.98 14 3 C12.6875 5.1875 12.6875 5.1875 11 7 C10.34 7 9.68 7 9 7 C9 6.34 9 5.68 9 5 C8.071875 4.731875 7.14375 4.46375 6.1875 4.1875 C3.23759634 3.08851629 1.94384814 2.37581439 0 0 Z " fill="#B24053" transform="translate(219,347)"/>
<path d="M0 0 C0.33 0.66 0.66 1.32 1 2 C-1.97 6.455 -1.97 6.455 -5 11 C-4.67 11.66 -4.34 12.32 -4 13 C-5.32 13 -6.64 13 -8 13 C-8.33 14.65 -8.66 16.3 -9 18 C-9.33 17.34 -9.66 16.68 -10 16 C-10.66 15.67 -11.32 15.34 -12 15 C-11.46890625 14.41992188 -10.9378125 13.83984375 -10.390625 13.2421875 C-6.55640802 9.00215924 -2.99783758 4.87148607 0 0 Z " fill="#AD3E50" transform="translate(300,281)"/>
<path d="M0 0 C0.33 0.99 0.66 1.98 1 3 C-1.12669835 5.33936818 -3.06224856 6.80653848 -6 8 C-6.99 8 -7.98 8 -9 8 C-9.33 7.01 -9.66 6.02 -10 5 C-6.7 3.35 -3.4 1.7 0 0 Z " fill="#B5374C" transform="translate(205,94)"/>
<path d="M0 0 C0.33 0.66 0.66 1.32 1 2 C1.66 2.33 2.32 2.66 3 3 C2.36191406 3.26554687 1.72382813 3.53109375 1.06640625 3.8046875 C0.24011719 4.15789062 -0.58617187 4.51109375 -1.4375 4.875 C-2.67306641 5.39707031 -2.67306641 5.39707031 -3.93359375 5.9296875 C-6.15746715 6.8244937 -6.15746715 6.8244937 -7 9 C-8.65 8.67 -10.3 8.34 -12 8 C-11.67 7.34 -11.34 6.68 -11 6 C-9.66801678 5.66131196 -8.33445514 5.32881359 -7 5 C-5.05591393 3.83404344 -5.05591393 3.83404344 -3.25 2.4375 C-2.63640625 1.98246094 -2.0228125 1.52742188 -1.390625 1.05859375 C-0.93171875 0.70925781 -0.4728125 0.35992187 0 0 Z " fill="#A92E43" transform="translate(259,322)"/>
<path d="M0 0 C1.1127563 3.3155596 0.9007397 5.32161249 -0.1875 8.625 C-0.42855469 9.40101563 -0.66960937 10.17703125 -0.91796875 10.9765625 C-2.23750029 13.44413411 -3.43218752 14.01115296 -6 15 C-5.19093245 12.68624595 -4.37793083 10.37401052 -3.5625 8.0625 C-3.33240234 7.40314453 -3.10230469 6.74378906 -2.86523438 6.06445312 C-1.11328125 1.11328125 -1.11328125 1.11328125 0 0 Z " fill="#AF3D4F" transform="translate(310,259)"/>
<path d="M0 0 C0.99 0.33 1.98 0.66 3 1 C2.67 1.66 2.34 2.32 2 3 C1.72428521 6.08100341 1.55336467 9.16171476 1.37890625 12.25 C1 15 1 15 -1 17 C-1.66 15.35 -2.32 13.7 -3 12 C-2.34 12 -1.68 12 -1 12 C-0.36605303 7.95858806 0.12404452 4.0934693 0 0 Z " fill="#AF495B" transform="translate(236,344)"/>
<path d="M0 0 C-3.55019514 2.36679676 -6.80827291 2.89540796 -11 3 C-13.25390625 2.51953125 -13.25390625 2.51953125 -15 2 C-9.32010626 -0.49118146 -6.05525768 -1.38766322 0 0 Z " fill="#AC4254" transform="translate(383,73)"/>
<path d="M0 0 C0.66 0 1.32 0 2 0 C1.67 0.99 1.34 1.98 1 3 C0.34 3 -0.32 3 -1 3 C-1.12375 3.639375 -1.2475 4.27875 -1.375 4.9375 C-1.58125 5.618125 -1.7875 6.29875 -2 7 C-2.99 7.495 -2.99 7.495 -4 8 C-4.66 7.67 -5.32 7.34 -6 7 C-6.33 7.66 -6.66 8.32 -7 9 C-7.66 8.34 -8.32 7.68 -9 7 C-8.43410156 6.57847656 -7.86820312 6.15695312 -7.28515625 5.72265625 C-6.55167969 5.17480469 -5.81820313 4.62695312 -5.0625 4.0625 C-4.33160156 3.51722656 -3.60070312 2.97195313 -2.84765625 2.41015625 C-1.0865547 1.13092062 -1.0865547 1.13092062 0 0 Z " fill="#B03C50" transform="translate(270,313)"/>
<path d="M0 0 C1.39195915 4.17587745 -0.17676781 6.13474776 -2 10 C-2.33 10 -2.66 10 -3 10 C-3 8.35 -3 6.7 -3 5 C-3.66 5 -4.32 5 -5 5 C-4.67 4.34 -4.34 3.68 -4 3 C-3.34 3.33 -2.68 3.66 -2 4 C-2 3.01 -2 2.02 -2 1 C-1.34 0.67 -0.68 0.34 0 0 Z " fill="#B52B42" transform="translate(254,296)"/>
<path d="M0 0 C1.35158203 0.15275391 1.35158203 0.15275391 2.73046875 0.30859375 C3.41753906 0.39238281 4.10460937 0.47617188 4.8125 0.5625 C4.8125 0.8925 4.8125 1.2225 4.8125 1.5625 C1.8425 1.5625 -1.1275 1.5625 -4.1875 1.5625 C-4.1875 2.5525 -4.1875 3.5425 -4.1875 4.5625 C-5.1775 4.8925 -6.1675 5.2225 -7.1875 5.5625 C-7.5175 3.9125 -7.8475 2.2625 -8.1875 0.5625 C-4.98734144 -0.50421952 -3.30205706 -0.38595472 0 0 Z " fill="#B22C41" transform="translate(234.1875,87.4375)"/>
<path d="M0 0 C0.99 0.495 0.99 0.495 2 1 C2 1.66 2 2.32 2 3 C3.175625 2.9071875 3.175625 2.9071875 4.375 2.8125 C5.674375 2.9053125 5.674375 2.9053125 7 3 C7.99 4.485 7.99 4.485 9 6 C7.02 5.34 5.04 4.68 3 4 C2.34 5.32 1.68 6.64 1 8 C0.67 5.36 0.34 2.72 0 0 Z " fill="#AC4A5B" transform="translate(244,352)"/>
<path d="M0 0 C0.66 0 1.32 0 2 0 C2 0.99 2 1.98 2 3 C5.3 3.66 8.6 4.32 12 5 C8.41220825 5.89694794 5.65381163 6.08304117 2 6 C1.34 4.02 0.68 2.04 0 0 Z " fill="#AC4252" transform="translate(245,111)"/>
<path d="M0 0 C1.76923828 0.01353516 1.76923828 0.01353516 3.57421875 0.02734375 C4.47785156 0.03894531 5.38148438 0.05054688 6.3125 0.0625 C6.3125 0.3925 6.3125 0.7225 6.3125 1.0625 C4.21100989 1.45221999 2.1061518 1.82381477 0 2.1875 C-1.17175781 2.39632813 -2.34351563 2.60515625 -3.55078125 2.8203125 C-6.6875 3.0625 -6.6875 3.0625 -9.6875 1.0625 C-6.26517028 -0.07827657 -3.60076783 -0.03565117 0 0 Z " fill="#B55364" transform="translate(302.6875,357.9375)"/>
<path d="M0 0 C0 0.66 0 1.32 0 2 C-2.40545638 3.20272819 -3.94996953 3.10071472 -6.625 3.0625 C-7.85089844 3.04896484 -7.85089844 3.04896484 -9.1015625 3.03515625 C-10.04128906 3.01775391 -10.04128906 3.01775391 -11 3 C-7.75987532 -0.24012468 -4.46544827 0 0 0 Z " fill="#A8374B" transform="translate(324,84)"/>
<path d="M0 0 C0.33 1.32 0.66 2.64 1 4 C-1.64 4.33 -4.28 4.66 -7 5 C-4.63707344 2.47411298 -3.33537489 1.11179163 0 0 Z " fill="#BA374E" transform="translate(281,306)"/>
<path d="M0 0 C1.5625 1.125 1.5625 1.125 3 3 C2.6875 6.1875 2.6875 6.1875 2 9 C1.01 8.67 0.02 8.34 -1 8 C-0.67 5.36 -0.34 2.72 0 0 Z " fill="#BA3852" transform="translate(268,261)"/>
<path d="M0 0 C1.49403054 2.98806107 2.79310745 5.89656201 4 9 C3.34 9.66 2.68 10.32 2 11 C1.34 10.67 0.68 10.34 0 10 C0 6.7 0 3.4 0 0 Z " fill="#A6263A" transform="translate(177,144)"/>
<path d="M0 0 C2.475 0.99 2.475 0.99 5 2 C5 2.99 5 3.98 5 5 C0.25 4.25 0.25 4.25 -2 2 C-1.34 2 -0.68 2 0 2 C0 1.34 0 0.68 0 0 Z " fill="#C45166" transform="translate(266,356)"/>
<path d="M0 0 C0.66 0 1.32 0 2 0 C4 3 4 3 3.625 5.1875 C3.41875 5.785625 3.2125 6.38375 3 7 C2.01 6.67 1.02 6.34 0 6 C0 4.02 0 2.04 0 0 Z " fill="#A62439" transform="translate(232,350)"/>
<path d="M0 0 C0.99 0.33 1.98 0.66 3 1 C1.55746343 4.36591866 -0.33264727 6.51047079 -3 9 C-3.33 8.01 -3.66 7.02 -4 6 C-3.34 6 -2.68 6 -2 6 C-2 5.34 -2 4.68 -2 4 C-1.34 4 -0.68 4 0 4 C0 2.68 0 1.36 0 0 Z " fill="#B84E61" transform="translate(243,310)"/>
<path d="M0 0 C0.33 0.99 0.66 1.98 1 3 C1.99 3.33 2.98 3.66 4 4 C3.34 6.64 2.68 9.28 2 12 C1.67 12 1.34 12 1 12 C0.67 8.04 0.34 4.08 0 0 Z " fill="#AB626D" transform="translate(239,348)"/>
<path d="M0 0 C4.875 4.625 4.875 4.625 6 8 C4 8 4 8 2.5 6.5625 C2.005 6.046875 1.51 5.53125 1 5 C0.34 4.67 -0.32 4.34 -1 4 C-0.67 2.68 -0.34 1.36 0 0 Z " fill="#B34051" transform="translate(241,320)"/>
</svg>
